IKResults
version=1
nRows=8
nColumns=63
inDegrees=yes

Units are S.I. units (second, meters, Newtons, ...)
If the header above contains a line with 'inDegrees', this indicates whether rotational values are in degrees (yes) or radians (no).

endheader
time	pelvis_tilt	pelvis_list	pelvis_rotation	pelvis_tx	pelvis_ty	pelvis_tz	hip_flexion_r	hip_adduction_r	hip_rotation_r	knee_angle_r	knee_angle_r_beta	ankle_angle_r	subtalar_angle_r	mtp_angle_r	hip_flexion_l	hip_adduction_l	hip_rotation_l	knee_angle_l	knee_angle_l_beta	ankle_angle_l	subtalar_angle_l	mtp_angle_l	L5_S1_Flex_Ext	L5_S1_Lat_Bending	L5_S1_axial_rotation	L4_L5_Flex_Ext	L4_L5_Lat_Bending	L4_L5_axial_rotation	L3_L4_Flex_Ext	L3_L4_Lat_Bending	L3_L4_axial_rotation	L2_L3_Flex_Ext	L2_L3_Lat_Bending	L2_L3_axial_rotation	L1_L2_Flex_Ext	L1_L2_Lat_Bending	L1_L2_axial_rotation	L1_T12_Flex_Ext	L1_T12_Lat_Bending	L1_T12_axial_rotation	Abs_r3	Abs_r2	Abs_r1	Abs_t1	Abs_t2	neck_flexion	neck_bending	neck_rotation	arm_flex_r	arm_add_r	arm_rot_r	elbow_flex_r	pro_sup_r	wrist_flex_r	wrist_dev_r	arm_flex_l	arm_add_l	arm_rot_l	elbow_flex_l	pro_sup_l	wrist_flex_l	wrist_dev_l
      2.03333333	    -76.22535092	     -1.33751573	    -18.92122949	     -0.71472800	      0.42753358	     -0.74012478	    132.17739064	    -27.94948958	    -23.10925720	    119.93289962	      2.09322398	     64.62618952	     -8.26656081	      0.00000000	    149.92156151	     13.08704409	     39.41515088	    119.92533480	      2.09309195	     44.13226343	      1.57037637	      0.00000000	      5.51822827	      4.04835407	      6.22310308	     10.24790173	      5.38431091	      6.61204702	      9.06589723	      9.84316809	      6.61204702	      6.30678309	      9.84316809	      5.44521520	      5.12422678	      8.25540362	      5.05627125	      3.15311564	      6.27090046	      4.66732731	     39.41615274	     45.79579093	     34.61103240	      0.00000000	      0.00000000	     28.43720621	    -13.67594802	    -13.70041454	     48.88613248	    -54.05775843	     -5.47138162	     44.29681263	     89.99559364	      0.00000000	      0.00000000	     -3.72009278	    -10.56671879	      9.92930809	     38.91556661	     89.99559364	      0.00000000	      0.00000000
      2.06666667	    -76.87101851	     -2.54155354	    -18.60202303	     -0.71236846	      0.42658173	     -0.74378773	    131.32535051	    -29.67665399	    -24.22045781	    119.93468283	      2.09325510	     65.08966016	     -7.25074304	      0.00000000	    149.92419668	     14.68149904	     39.51961694	    119.92739908	      2.09312798	     43.93958203	      0.64821746	      0.00000000	      5.70605194	      4.23828936	      6.17534550	     10.59670906	      5.63692485	      6.56130460	      9.37447274	     10.30497675	      6.56130460	      6.52144676	     10.30497675	      5.40342731	      5.29863983	      8.64271966	      5.01746822	      3.26043808	      6.56511022	      4.63150913	     40.75775842	     47.94437688	     34.34541908	      0.00000000	      0.00000000	     28.45180991	    -14.00251544	    -12.26989713	     50.12701459	    -55.75544430	     -4.36029780	     47.96644687	     89.99559364	      0.00000000	      0.00000000	     -3.86548015	     -9.59575049	     10.61088444	     38.59474956	     89.99559364	      0.00000000	      0.00000000
      2.10000000	    -77.34650347	     -3.27543193	    -18.40264798	     -0.71066484	      0.42588377	     -0.74667572	    130.88943708	    -30.86516986	    -24.91873981	    119.93609475	      2.09327975	     65.21595650	     -6.86382560	      0.00000000	    149.92692541	     15.76457390	     39.57860185	    119.92919632	      2.09315935	     43.92249369	      0.04769654	      0.00000000	      5.86371593	      4.36319529	      6.16647928	     10.88950685	      5.80304974	      6.55188424	      9.63349890	     10.60867303	      6.55188424	      6.70164094	     10.60867303	      5.39566937	      5.44504661	      8.89742784	      5.01026442	      3.35052728	      6.75858951	      4.62485946	     41.88393651	     49.35733777	     34.29610781	      0.00000000	      0.00000000	     28.45910087	    -14.19490123	    -11.39527251	     50.85678682	    -57.02229044	     -3.79089589	     50.53154250	     89.99559364	      0.00000000	      0.00000000	     -3.97346378	     -8.82488307	     10.81374313	     38.28100166	     89.99559364	      0.00000000	      0.00000000
      2.13333333	    -77.74844204	     -3.83627776	    -18.27677603	     -0.70922064	      0.42548245	     -0.74927108	    130.56968625	    -31.82527057	    -25.37633996	    119.93631765	      2.09328364	     65.31277478	     -6.30485907	      0.00000000	    149.92798905	     16.66114263	     39.60766765	    119.92937618	      2.09316248	     43.80796953	     -0.73432766	      0.00000000	      6.00994048	      4.46605238	      6.13671860	     11.16106046	      5.93984967	      6.52026351	      9.87373121	     10.85875977	      6.52026351	      6.86876097	     10.85875977	      5.36962878	      5.58083073	      9.10717402	      4.98608386	      3.43407999	      6.91791514	      4.60253895	     42.92840382	     50.52087777	     34.13058784	      0.00000000	      0.00000000	     28.45762168	    -14.45452277	    -10.92993349	     51.52372192	    -58.03309154	     -2.70716232	     51.66416199	     89.99559364	      0.00000000	      0.00000000	     -4.22587385	     -8.21240213	     10.80275211	     38.17874003	     89.99559364	      0.00000000	      0.00000000
      2.16666667	    -77.63520794	     -3.85254264	    -18.34016861	     -0.70977084	      0.42515488	     -0.74987593	    130.66149171	    -31.92273705	    -25.31693124	    119.93771929	      2.09330810	     65.33035725	     -6.33939900	      0.00000000	    149.92618580	     16.67212706	     39.58980675	    119.93013060	      2.09317565	     43.84502193	     -0.81551517	      0.00000000	      6.03308482	      4.48184449	      6.14597053	     11.20404181	      5.96085317	      6.53009369	      9.91175504	     10.89715670	      6.53009369	      6.89521264	     10.89715670	      5.37772421	      5.60232256	      9.13937729	      4.99360105	      3.44730466	      6.94237712	      4.60947790	     43.09372153	     50.69952125	     34.18204429	      0.00000000	      0.00000000	     28.45666847	    -14.44005871	    -10.99071770	     51.66105672	    -58.07884713	     -2.71242271	     51.65088411	     89.99559364	      0.00000000	      0.00000000	     -4.15525359	     -8.16429586	     10.78642242	     38.16653531	     89.99559364	      0.00000000	      0.00000000
      2.20000000	    -78.02487657	     -3.83643893	    -18.38448171	     -0.70856572	      0.42541058	     -0.75200570	    130.91113344	    -32.28429253	    -25.15876518	    119.93584492	      2.09327539	     64.46699774	     -6.78844091	      0.00000000	    149.92754555	     17.10325245	     39.60642952	    119.92790522	      2.09313681	     43.83347585	     -1.61477148	      0.00000000	      6.18669636	      4.52173066	      6.09742828	     11.48931381	      6.01390178	      6.47851755	     10.16412345	     10.99413593	      6.47851755	      7.07077527	     10.99413593	      5.33524975	      5.74496624	      9.22071317	      4.95416048	      3.53507830	      7.00416079	      4.57307121	     44.19095343	     51.15072159	     33.91206689	      0.00000000	      0.00000000	     28.43520987	    -14.46793440	    -11.11615001	     51.43947652	    -58.45138462	     -1.71022374	     50.49270430	     89.99559364	      0.00000000	      0.00000000	     -4.73931825	     -7.83599919	     10.32324963	     38.26060683	     89.99559364	      0.00000000	      0.00000000
      2.23333333	    -78.05998044	     -3.61003892	    -18.51749702	     -0.70859534	      0.42601472	     -0.75256511	    131.18783660	    -32.16199940	    -24.85579881	    119.93325467	      2.09323018	     63.57273884	     -7.67848396	      0.00000000	    149.92519276	     17.00713257	     39.59223715	    119.92519339	      2.09308948	     43.63858072	     -2.02379513	      0.00000000	      6.26311132	      4.51709286	      6.03711463	     11.63122403	      6.00773350	      6.41443429	     10.28966558	     10.98285957	      6.41443429	      7.15810993	     10.98285957	      5.28247530	      5.81592517	      9.21125576	      4.90515564	      3.57874181	      6.99697684	      4.52783597	     44.73677783	     51.09825782	     33.57662044	      0.00000000	      0.00000000	     28.41434279	    -14.29306686	    -11.26322797	     51.10107437	    -58.26988652	     -0.69878719	     48.24815274	     89.99559364	      0.00000000	      0.00000000	     -5.14282097	     -7.78965974	      9.52469579	     38.39995797	     89.99559364	      0.00000000	      0.00000000
      2.26666667	    -77.99010305	     -2.99752605	    -18.72174519	     -0.70901301	      0.42700254	     -0.75213866	    131.74377242	    -31.59448781	    -24.23270177	    119.93035923	      2.09317964	     62.18151654	     -9.15110833	      0.00000000	    149.92250499	     16.46456683	     39.54720817	    119.91976236	      2.09299469	     43.63817737	     -2.11399033	      0.00000000	      6.32257142	      4.45658511	      5.97854180	     11.74164739	      5.92725819	      6.35220067	     10.38735259	     10.83574103	      6.35220067	      7.22606688	     10.83574103	      5.23122408	      5.87113982	      9.08786835	      4.85756522	      3.61271731	      6.90325033	      4.48390635	     45.16149540	     50.41378206	     33.25085595	      0.00000000	      0.00000000	     28.38565301	    -13.83563078	    -11.84945924	     50.12353856	    -57.54512598	     -0.30129293	     45.20039591	     89.99559364	      0.00000000	      0.00000000	     -5.50113686	     -8.12160549	      9.04002064	     38.49519271	     89.99559364	      0.00000000	      0.00000000
